<?xml version="1.0" encoding="utf-8"?>
<!-- Generator: Adobe Illustrator 15.0.0, SVG Export Plug-In . SVG Version: 6.00 Build 0)  -->
<!DOCTYPE svg PUBLIC "-//W3C//DTD SVG 1.1//EN" "http://www.w3.org/Graphics/SVG/1.1/DTD/svg11.dtd">
<svg style="background-color: rgba(100,100,100,0.4)"  version="1.1" id="Capa_1" xmlns="http://www.w3.org/2000/svg" xmlns:xlink="http://www.w3.org/1999/xlink" x="0px" y="0px"
	 width="612px" height="612px" viewBox="0 0 612 612" enable-background="new 0 0 612 612" xml:space="preserve">
	<rect width="100%" height="100%" stroke-width="70" stroke="white" fill="none"/>
	<g>
	<path transform="translate(562,50) scale(-1,1)" fill="white" d="M461.643,41.617l-110.771-0.062c-3.223,0-6.137,1.984-7.377,4.959c-1.239,2.976-0.557,6.416,1.736,8.709l41.717,41.687
		L97.654,387.691l-41.655-41.655c-2.293-2.263-5.703-2.976-8.678-1.735c-2.976,1.239-4.928,4.184-4.928,7.376l-0.031,110.771
		c0,4.401,3.595,7.966,7.996,7.966l110.771,0.03c3.224,0,6.106-1.952,7.346-4.928s0.589-6.416-1.705-8.74l-41.655-41.624
		l220.364-222.007l68.836-68.837l41.688,41.687c2.293,2.262,5.702,2.944,8.678,1.705s4.928-4.122,4.928-7.376l0.031-110.709
		C469.639,45.182,466.043,41.617,461.643,41.617"/>
</g>
</svg>
