<?xml version="1.0" encoding="utf-8"?>
<!-- Generator: Adobe Illustrator 15.0.0, SVG Export Plug-In . SVG Version: 6.00 Build 0)  -->
<!DOCTYPE svg PUBLIC "-//W3C//DTD SVG 1.1//EN" "http://www.w3.org/Graphics/SVG/1.1/DTD/svg11.dtd">
<svg style="background-color: rgba(100,100,100,0.4)" version="1.1" id="Capa_1" xmlns="http://www.w3.org/2000/svg" xmlns:xlink="http://www.w3.org/1999/xlink" x="0px" y="0px"
	 width="612px" height="612px" viewBox="0 0 612 612" enable-background="new 0 0 612 612" xml:space="preserve">
	<rect width="100%" height="100%" stroke-width="70" stroke="white" fill="none"/>
<g>
	<path transform="translate(50,50)" fill="white" d="M420.622,25.568c-9.087,0-16.463,7.346-16.463,16.434v60.129c-84.778-82.007-219.976-79.83-301.983,4.917
		c-38.685,39.932-60.222,93.337-60.159,148.954c0,9.086,7.376,16.461,16.493,16.461c9.088,0,16.434-7.375,16.434-16.461
		c0.063-99.998,81.105-181.04,181.103-181.01c50.792,0,99.25,21.319,133.547,58.792l-72.951,24.337
		c-8.621,2.865-13.32,12.201-10.395,20.822c2.863,8.621,12.168,13.289,20.789,10.426l98.783-32.927
		c6.753-2.211,11.268-8.56,11.268-15.655V42.002C437.057,32.914,429.681,25.568,420.622,25.568"/>
	<path transform="translate(50,50)" fill="white" d="M453.52,239.537c-9.088,0-16.432,7.377-16.432,16.434C437.057,356,355.98,437.042,255.954,437.042
		c-50.73-0.03-99.219-21.353-133.486-58.823l72.919-24.306c8.654-2.895,13.291-12.201,10.428-20.822
		c-2.895-8.65-12.233-13.32-20.854-10.455l-98.75,32.896c-6.724,2.272-11.268,8.588-11.268,15.686v98.784
		c0,9.054,7.376,16.43,16.434,16.43c9.149,0,16.493-7.376,16.493-16.43v-60.161c84.749,82.039,219.945,79.89,302.016-4.855
		c38.654-39.961,60.224-93.398,60.098-149.015C470.015,246.914,462.607,239.537,453.52,239.537"/>
</g>
</svg>
